<mxfile host="Electron" modified="2024-06-22T15:19:34.156Z" agent="Mozilla/5.0 (Macintosh; Intel Mac OS X 10_15_7) AppleWebKit/537.36 (KHTML, like Gecko) draw.io/24.2.5 Chrome/120.0.6099.109 Electron/28.1.0 Safari/537.36" etag="xngajtP9v68rPrTl3bto" version="24.2.5" type="device">
  <diagram name="Page-1" id="3MIngDmAgbNU4fVDyyzJ">
    <mxGraphModel dx="2851" dy="1689" grid="0" gridSize="10" guides="0" tooltips="1" connect="1" arrows="1" fold="1" page="0" pageScale="1" pageWidth="850" pageHeight="1100" math="0" shadow="0">
      <root>
        <mxCell id="0" />
        <mxCell id="1" parent="0" />
        <mxCell id="rA6aza_w5iIKAxAunfqu-94" value="GEN-AI" style="ellipse;shape=cloud;whiteSpace=wrap;html=1;strokeColor=#d79b00;align=center;verticalAlign=middle;fontFamily=Gloria Hallelujah;fontSource=https%3A%2F%2Ffonts.googleapis.com%2Fcss%3Ffamily%3DGloria%2BHallelujah;fontSize=36;labelBackgroundColor=none;fillColor=#ffcd28;sketch=1;curveFitting=1;jiggle=2;gradientColor=#ffa500;fontColor=#000000;" parent="1" vertex="1">
          <mxGeometry x="197.5" y="-30" width="195" height="130" as="geometry" />
        </mxCell>
        <mxCell id="rA6aza_w5iIKAxAunfqu-16" value="RAG VPC" style="rounded=0;whiteSpace=wrap;html=1;sketch=1;hachureGap=4;jiggle=2;curveFitting=1;fontFamily=Architects Daughter;fontSource=https%3A%2F%2Ffonts.googleapis.com%2Fcss%3Ffamily%3DArchitects%2BDaughter;verticalAlign=bottom;fontSize=18;fillColor=none;labelBackgroundColor=default;" parent="1" vertex="1">
          <mxGeometry x="760" y="540" width="500" height="440" as="geometry" />
        </mxCell>
        <mxCell id="rA6aza_w5iIKAxAunfqu-83" value="Enterprise Knowledge Corpus" style="rounded=1;whiteSpace=wrap;html=1;align=center;verticalAlign=bottom;fontFamily=Gloria Hallelujah;fontSource=https%3A%2F%2Ffonts.googleapis.com%2Fcss%3Ffamily%3DGloria%2BHallelujah;fontSize=18;labelBackgroundColor=default;fillColor=none;sketch=1;curveFitting=1;jiggle=2;" parent="1" vertex="1">
          <mxGeometry x="992.93" y="800" width="247.07" height="140" as="geometry" />
        </mxCell>
        <mxCell id="rA6aza_w5iIKAxAunfqu-1" value="LLM Models" style="ellipse;whiteSpace=wrap;html=1;sketch=1;hachureGap=4;jiggle=2;curveFitting=1;fontFamily=Architects Daughter;fontSource=https%3A%2F%2Ffonts.googleapis.com%2Fcss%3Ffamily%3DArchitects%2BDaughter;fontSize=30;fillColor=none;" parent="1" vertex="1">
          <mxGeometry x="140" y="370" width="260" height="250" as="geometry" />
        </mxCell>
        <mxCell id="rA6aza_w5iIKAxAunfqu-2" value="" style="ellipse;whiteSpace=wrap;html=1;sketch=1;hachureGap=4;jiggle=2;curveFitting=1;fontFamily=Architects Daughter;fontSource=https%3A%2F%2Ffonts.googleapis.com%2Fcss%3Ffamily%3DArchitects%2BDaughter;fontSize=19;fillColor=#fff2cc;gradientColor=#ffd966;strokeColor=#d6b656;" parent="1" vertex="1">
          <mxGeometry x="315" y="282" width="190.32" height="183" as="geometry" />
        </mxCell>
        <mxCell id="rA6aza_w5iIKAxAunfqu-3" value="BedRock" style="ellipse;whiteSpace=wrap;html=1;sketch=1;hachureGap=4;jiggle=2;curveFitting=1;fontFamily=Architects Daughter;fontSource=https%3A%2F%2Ffonts.googleapis.com%2Fcss%3Ffamily%3DArchitects%2BDaughter;fontSize=19;fillColor=#fff2cc;gradientColor=#ffd966;strokeColor=#d6b656;fontColor=#000000;" parent="1" vertex="1">
          <mxGeometry x="260" y="300" width="94.8" height="91.15" as="geometry" />
        </mxCell>
        <mxCell id="rA6aza_w5iIKAxAunfqu-4" value="OpenAI" style="ellipse;whiteSpace=wrap;html=1;sketch=1;hachureGap=4;jiggle=2;curveFitting=1;fontFamily=Architects Daughter;fontSource=https%3A%2F%2Ffonts.googleapis.com%2Fcss%3Ffamily%3DArchitects%2BDaughter;fontSize=19;" parent="1" vertex="1">
          <mxGeometry x="120" y="310" width="93.6" height="90" as="geometry" />
        </mxCell>
        <mxCell id="rA6aza_w5iIKAxAunfqu-5" value="Gemini" style="ellipse;whiteSpace=wrap;html=1;sketch=1;hachureGap=4;jiggle=2;curveFitting=1;fontFamily=Architects Daughter;fontSource=https%3A%2F%2Ffonts.googleapis.com%2Fcss%3Ffamily%3DArchitects%2BDaughter;fontSize=19;" parent="1" vertex="1">
          <mxGeometry x="96.4" y="380" width="93.6" height="90" as="geometry" />
        </mxCell>
        <mxCell id="rA6aza_w5iIKAxAunfqu-6" value="LLaMA" style="ellipse;whiteSpace=wrap;html=1;sketch=1;hachureGap=4;jiggle=2;curveFitting=1;fontFamily=Architects Daughter;fontSource=https%3A%2F%2Ffonts.googleapis.com%2Fcss%3Ffamily%3DArchitects%2BDaughter;fontSize=19;" parent="1" vertex="1">
          <mxGeometry x="72.5" y="500" width="100" height="100" as="geometry" />
        </mxCell>
        <mxCell id="rA6aza_w5iIKAxAunfqu-8" value="Everyday AI" style="shape=flexArrow;endArrow=classic;startArrow=classic;html=1;rounded=0;sketch=1;hachureGap=4;jiggle=2;curveFitting=1;fontFamily=Architects Daughter;fontSource=https%3A%2F%2Ffonts.googleapis.com%2Fcss%3Ffamily%3DArchitects%2BDaughter;width=40;endSize=15.385714285714286;fontSize=34;labelBackgroundColor=none;endWidth=22.857142857142858;startWidth=22.857142857142858;startSize=15.385714285714286;" parent="1" edge="1">
          <mxGeometry width="100" height="100" relative="1" as="geometry">
            <mxPoint x="-770" y="39" as="sourcePoint" />
            <mxPoint x="180" y="40" as="targetPoint" />
          </mxGeometry>
        </mxCell>
        <mxCell id="rA6aza_w5iIKAxAunfqu-15" value="Security VPC" style="rounded=0;whiteSpace=wrap;html=1;sketch=1;hachureGap=4;jiggle=2;curveFitting=1;fontFamily=Architects Daughter;fontSource=https%3A%2F%2Ffonts.googleapis.com%2Fcss%3Ffamily%3DArchitects%2BDaughter;verticalAlign=bottom;fontSize=18;fillColor=none;labelBackgroundColor=default;" parent="1" vertex="1">
          <mxGeometry x="980" y="240" width="300" height="140" as="geometry" />
        </mxCell>
        <mxCell id="rA6aza_w5iIKAxAunfqu-17" value="Transit Gateway" style="sketch=0;points=[[0,0,0],[0.25,0,0],[0.5,0,0],[0.75,0,0],[1,0,0],[0,1,0],[0.25,1,0],[0.5,1,0],[0.75,1,0],[1,1,0],[0,0.25,0],[0,0.5,0],[0,0.75,0],[1,0.25,0],[1,0.5,0],[1,0.75,0]];outlineConnect=0;fontColor=#232F3E;fillColor=#8C4FFF;strokeColor=#ffffff;dashed=0;verticalLabelPosition=bottom;verticalAlign=top;align=center;html=1;fontSize=18;fontStyle=0;aspect=fixed;shape=mxgraph.aws4.resourceIcon;resIcon=mxgraph.aws4.transit_gateway;hachureGap=4;jiggle=2;curveFitting=1;fontFamily=Architects Daughter;fontSource=https%3A%2F%2Ffonts.googleapis.com%2Fcss%3Ffamily%3DArchitects%2BDaughter;" parent="1" vertex="1">
          <mxGeometry x="1150" y="420" width="70" height="70" as="geometry" />
        </mxCell>
        <mxCell id="rA6aza_w5iIKAxAunfqu-18" style="edgeStyle=orthogonalEdgeStyle;rounded=0;sketch=1;hachureGap=4;jiggle=2;curveFitting=1;orthogonalLoop=1;jettySize=auto;html=1;exitX=0.5;exitY=0;exitDx=0;exitDy=0;entryX=0;entryY=0.75;entryDx=0;entryDy=0;entryPerimeter=0;fontFamily=Architects Daughter;fontSource=https%3A%2F%2Ffonts.googleapis.com%2Fcss%3Ffamily%3DArchitects%2BDaughter;startArrow=classic;startFill=1;fontSize=18;" parent="1" source="rA6aza_w5iIKAxAunfqu-16" target="rA6aza_w5iIKAxAunfqu-17" edge="1">
          <mxGeometry relative="1" as="geometry" />
        </mxCell>
        <mxCell id="rA6aza_w5iIKAxAunfqu-19" style="edgeStyle=orthogonalEdgeStyle;rounded=0;sketch=1;hachureGap=4;jiggle=2;curveFitting=1;orthogonalLoop=1;jettySize=auto;html=1;exitX=0;exitY=0.25;exitDx=0;exitDy=0;exitPerimeter=0;entryX=0.137;entryY=1.022;entryDx=0;entryDy=0;entryPerimeter=0;fontFamily=Architects Daughter;fontSource=https%3A%2F%2Ffonts.googleapis.com%2Fcss%3Ffamily%3DArchitects%2BDaughter;startArrow=classic;startFill=1;fontSize=18;" parent="1" source="rA6aza_w5iIKAxAunfqu-17" target="rA6aza_w5iIKAxAunfqu-15" edge="1">
          <mxGeometry relative="1" as="geometry" />
        </mxCell>
        <mxCell id="rA6aza_w5iIKAxAunfqu-21" value="Managed Browsers" style="strokeWidth=1;shadow=0;dashed=0;align=center;html=1;shape=mxgraph.mockup.containers.browserWindow;rSize=0;strokeColor=#666666;strokeColor2=#008cff;strokeColor3=#c4c4c4;mainText=,;recursiveResize=0;sketch=1;hachureGap=4;jiggle=2;curveFitting=1;fontFamily=Architects Daughter;fontSource=https%3A%2F%2Ffonts.googleapis.com%2Fcss%3Ffamily%3DArchitects%2BDaughter;verticalAlign=bottom;fontSize=20;" parent="1" vertex="1">
          <mxGeometry x="-356" y="170" width="330" height="230" as="geometry" />
        </mxCell>
        <mxCell id="rA6aza_w5iIKAxAunfqu-22" value="Page 1" style="strokeWidth=1;shadow=0;dashed=0;align=center;html=1;shape=mxgraph.mockup.containers.anchor;fontSize=17;fontColor=#666666;align=left;whiteSpace=wrap;sketch=1;hachureGap=4;jiggle=2;curveFitting=1;fontFamily=Architects Daughter;fontSource=https%3A%2F%2Ffonts.googleapis.com%2Fcss%3Ffamily%3DArchitects%2BDaughter;" parent="rA6aza_w5iIKAxAunfqu-21" vertex="1">
          <mxGeometry x="60" y="12" width="110" height="26" as="geometry" />
        </mxCell>
        <mxCell id="rA6aza_w5iIKAxAunfqu-23" value="https://www.LLM.io" style="strokeWidth=1;shadow=0;dashed=0;align=center;html=1;shape=mxgraph.mockup.containers.anchor;rSize=0;fontSize=17;fontColor=#666666;align=left;sketch=1;hachureGap=4;jiggle=2;curveFitting=1;fontFamily=Architects Daughter;fontSource=https%3A%2F%2Ffonts.googleapis.com%2Fcss%3Ffamily%3DArchitects%2BDaughter;" parent="rA6aza_w5iIKAxAunfqu-21" vertex="1">
          <mxGeometry x="130" y="60" width="250" height="26" as="geometry" />
        </mxCell>
        <mxCell id="WuPXo1o1_WAH7fLLWVi5-3" value="" style="shape=image;verticalLabelPosition=bottom;labelBackgroundColor=default;verticalAlign=top;aspect=fixed;imageAspect=0;image=https://1000logos.net/wp-content/uploads/2023/05/Poe-Chatbot-Logo.png;" parent="rA6aza_w5iIKAxAunfqu-21" vertex="1">
          <mxGeometry x="105.44999999999999" y="120" width="119.11" height="67" as="geometry" />
        </mxCell>
        <mxCell id="rA6aza_w5iIKAxAunfqu-39" value="SASE" style="edgeStyle=orthogonalEdgeStyle;curved=1;rounded=0;hachureGap=4;orthogonalLoop=1;jettySize=auto;html=1;strokeColor=default;strokeWidth=2;align=center;verticalAlign=middle;fontFamily=Architects Daughter;fontSource=https%3A%2F%2Ffonts.googleapis.com%2Fcss%3Ffamily%3DArchitects%2BDaughter;fontSize=18;fontColor=default;labelBackgroundColor=default;endArrow=classic;flowAnimation=1;" parent="1" source="rA6aza_w5iIKAxAunfqu-25" edge="1">
          <mxGeometry relative="1" as="geometry">
            <mxPoint x="130" y="490" as="targetPoint" />
          </mxGeometry>
        </mxCell>
        <mxCell id="rA6aza_w5iIKAxAunfqu-25" value="Managed Devices in&amp;nbsp;&lt;div style=&quot;font-size: 20px;&quot;&gt;Unmanaged Networks&lt;/div&gt;" style="rounded=0;whiteSpace=wrap;html=1;sketch=1;hachureGap=4;jiggle=2;curveFitting=1;fontFamily=Architects Daughter;fontSource=https%3A%2F%2Ffonts.googleapis.com%2Fcss%3Ffamily%3DArchitects%2BDaughter;verticalAlign=bottom;fontSize=20;fillColor=none;labelBackgroundColor=default;" parent="1" vertex="1">
          <mxGeometry x="-342" y="470" width="302" height="140" as="geometry" />
        </mxCell>
        <mxCell id="rA6aza_w5iIKAxAunfqu-26" value="Managed Devices in&amp;nbsp;&lt;div style=&quot;font-size: 20px;&quot;&gt;Managed Networks&lt;/div&gt;" style="rounded=0;whiteSpace=wrap;html=1;sketch=1;hachureGap=4;jiggle=2;curveFitting=1;fontFamily=Architects Daughter;fontSource=https%3A%2F%2Ffonts.googleapis.com%2Fcss%3Ffamily%3DArchitects%2BDaughter;verticalAlign=bottom;fontSize=20;fillColor=none;labelBackgroundColor=default;" parent="1" vertex="1">
          <mxGeometry x="-348.5" y="680" width="315" height="140" as="geometry" />
        </mxCell>
        <mxCell id="rA6aza_w5iIKAxAunfqu-27" value="Hugging&lt;div style=&quot;font-size: 19px;&quot;&gt;Face&lt;/div&gt;" style="ellipse;whiteSpace=wrap;html=1;sketch=1;hachureGap=4;jiggle=2;curveFitting=1;fontFamily=Architects Daughter;fontSource=https%3A%2F%2Ffonts.googleapis.com%2Fcss%3Ffamily%3DArchitects%2BDaughter;fontSize=19;" parent="1" vertex="1">
          <mxGeometry x="350" y="489" width="150" height="150" as="geometry" />
        </mxCell>
        <mxCell id="rA6aza_w5iIKAxAunfqu-28" value="Application VPC" style="rounded=0;whiteSpace=wrap;html=1;sketch=1;hachureGap=4;jiggle=2;curveFitting=1;fontFamily=Architects Daughter;fontSource=https%3A%2F%2Ffonts.googleapis.com%2Fcss%3Ffamily%3DArchitects%2BDaughter;verticalAlign=bottom;fontSize=18;fillColor=none;labelBackgroundColor=default;" parent="1" vertex="1">
          <mxGeometry x="570" y="320" width="320" height="180" as="geometry" />
        </mxCell>
        <mxCell id="rA6aza_w5iIKAxAunfqu-29" style="edgeStyle=orthogonalEdgeStyle;rounded=0;sketch=1;hachureGap=4;jiggle=2;curveFitting=1;orthogonalLoop=1;jettySize=auto;html=1;exitX=1;exitY=0.75;exitDx=0;exitDy=0;entryX=0;entryY=0.5;entryDx=0;entryDy=0;entryPerimeter=0;fontFamily=Architects Daughter;fontSource=https%3A%2F%2Ffonts.googleapis.com%2Fcss%3Ffamily%3DArchitects%2BDaughter;startArrow=classic;startFill=1;fontSize=18;" parent="1" source="rA6aza_w5iIKAxAunfqu-28" target="rA6aza_w5iIKAxAunfqu-17" edge="1">
          <mxGeometry relative="1" as="geometry" />
        </mxCell>
        <mxCell id="rA6aza_w5iIKAxAunfqu-32" style="edgeStyle=orthogonalEdgeStyle;rounded=0;hachureGap=4;orthogonalLoop=1;jettySize=auto;html=1;entryX=-0.013;entryY=0.365;entryDx=0;entryDy=0;entryPerimeter=0;fontFamily=Architects Daughter;fontSource=https%3A%2F%2Ffonts.googleapis.com%2Fcss%3Ffamily%3DArchitects%2BDaughter;flowAnimation=1;curved=1;strokeWidth=2;strokeColor=#FF00FF;" parent="1" source="rA6aza_w5iIKAxAunfqu-7" target="rA6aza_w5iIKAxAunfqu-21" edge="1">
          <mxGeometry relative="1" as="geometry" />
        </mxCell>
        <mxCell id="rA6aza_w5iIKAxAunfqu-33" style="edgeStyle=orthogonalEdgeStyle;curved=1;rounded=0;hachureGap=4;orthogonalLoop=1;jettySize=auto;html=1;strokeColor=#FF00FF;strokeWidth=2;align=center;verticalAlign=middle;fontFamily=Architects Daughter;fontSource=https%3A%2F%2Ffonts.googleapis.com%2Fcss%3Ffamily%3DArchitects%2BDaughter;fontSize=11;fontColor=default;labelBackgroundColor=default;endArrow=classic;flowAnimation=1;entryX=0;entryY=0.5;entryDx=0;entryDy=0;" parent="1" source="rA6aza_w5iIKAxAunfqu-10" target="rA6aza_w5iIKAxAunfqu-26" edge="1">
          <mxGeometry relative="1" as="geometry" />
        </mxCell>
        <mxCell id="rA6aza_w5iIKAxAunfqu-34" style="edgeStyle=orthogonalEdgeStyle;curved=1;rounded=0;hachureGap=4;orthogonalLoop=1;jettySize=auto;html=1;strokeColor=#FF00FF;strokeWidth=2;align=center;verticalAlign=middle;fontFamily=Architects Daughter;fontSource=https%3A%2F%2Ffonts.googleapis.com%2Fcss%3Ffamily%3DArchitects%2BDaughter;fontSize=11;fontColor=default;labelBackgroundColor=default;endArrow=classic;flowAnimation=1;entryX=0;entryY=0.25;entryDx=0;entryDy=0;" parent="1" source="rA6aza_w5iIKAxAunfqu-11" target="rA6aza_w5iIKAxAunfqu-26" edge="1">
          <mxGeometry relative="1" as="geometry" />
        </mxCell>
        <mxCell id="rA6aza_w5iIKAxAunfqu-35" style="edgeStyle=orthogonalEdgeStyle;curved=1;rounded=0;hachureGap=4;orthogonalLoop=1;jettySize=auto;html=1;exitX=1;exitY=0.25;exitDx=0;exitDy=0;entryX=0;entryY=0.75;entryDx=0;entryDy=0;strokeColor=#FF00FF;strokeWidth=2;align=center;verticalAlign=middle;fontFamily=Architects Daughter;fontSource=https%3A%2F%2Ffonts.googleapis.com%2Fcss%3Ffamily%3DArchitects%2BDaughter;fontSize=11;fontColor=default;labelBackgroundColor=default;endArrow=classic;flowAnimation=1;" parent="1" source="rA6aza_w5iIKAxAunfqu-11" target="rA6aza_w5iIKAxAunfqu-25" edge="1">
          <mxGeometry relative="1" as="geometry" />
        </mxCell>
        <mxCell id="rA6aza_w5iIKAxAunfqu-36" style="edgeStyle=orthogonalEdgeStyle;curved=1;rounded=0;hachureGap=4;orthogonalLoop=1;jettySize=auto;html=1;exitX=1;exitY=0.75;exitDx=0;exitDy=0;entryX=0;entryY=0.25;entryDx=0;entryDy=0;strokeColor=#FF00FF;strokeWidth=2;align=center;verticalAlign=middle;fontFamily=Architects Daughter;fontSource=https%3A%2F%2Ffonts.googleapis.com%2Fcss%3Ffamily%3DArchitects%2BDaughter;fontSize=11;fontColor=default;labelBackgroundColor=default;endArrow=classic;flowAnimation=1;" parent="1" source="rA6aza_w5iIKAxAunfqu-7" target="rA6aza_w5iIKAxAunfqu-25" edge="1">
          <mxGeometry relative="1" as="geometry" />
        </mxCell>
        <mxCell id="rA6aza_w5iIKAxAunfqu-37" value="Mid Journey" style="ellipse;whiteSpace=wrap;html=1;sketch=1;hachureGap=4;jiggle=2;curveFitting=1;fontFamily=Architects Daughter;fontSource=https%3A%2F%2Ffonts.googleapis.com%2Fcss%3Ffamily%3DArchitects%2BDaughter;fontSize=19;" parent="1" vertex="1">
          <mxGeometry x="130" y="570" width="120" height="120" as="geometry" />
        </mxCell>
        <mxCell id="rA6aza_w5iIKAxAunfqu-38" value="PAB" style="edgeStyle=orthogonalEdgeStyle;curved=1;rounded=0;hachureGap=4;orthogonalLoop=1;jettySize=auto;html=1;entryX=0.031;entryY=0.726;entryDx=0;entryDy=0;entryPerimeter=0;strokeColor=default;strokeWidth=2;align=center;verticalAlign=middle;fontFamily=Architects Daughter;fontSource=https%3A%2F%2Ffonts.googleapis.com%2Fcss%3Ffamily%3DArchitects%2BDaughter;fontSize=18;fontColor=default;labelBackgroundColor=default;endArrow=classic;flowAnimation=1;" parent="1" source="rA6aza_w5iIKAxAunfqu-21" target="rA6aza_w5iIKAxAunfqu-4" edge="1">
          <mxGeometry relative="1" as="geometry" />
        </mxCell>
        <mxCell id="rA6aza_w5iIKAxAunfqu-40" value="NGFW" style="edgeStyle=orthogonalEdgeStyle;curved=1;rounded=0;hachureGap=4;orthogonalLoop=1;jettySize=auto;html=1;exitX=1;exitY=0.5;exitDx=0;exitDy=0;entryX=-0.039;entryY=0.405;entryDx=0;entryDy=0;entryPerimeter=0;strokeColor=default;strokeWidth=2;align=center;verticalAlign=middle;fontFamily=Architects Daughter;fontSource=https%3A%2F%2Ffonts.googleapis.com%2Fcss%3Ffamily%3DArchitects%2BDaughter;fontSize=18;fontColor=default;labelBackgroundColor=default;endArrow=classic;flowAnimation=1;" parent="1" source="rA6aza_w5iIKAxAunfqu-26" target="rA6aza_w5iIKAxAunfqu-37" edge="1">
          <mxGeometry relative="1" as="geometry" />
        </mxCell>
        <mxCell id="rA6aza_w5iIKAxAunfqu-91" style="edgeStyle=orthogonalEdgeStyle;curved=1;rounded=0;hachureGap=4;orthogonalLoop=1;jettySize=auto;html=1;strokeColor=#FF0000;strokeWidth=2;align=center;verticalAlign=middle;fontFamily=Gloria Hallelujah;fontSource=https%3A%2F%2Ffonts.googleapis.com%2Fcss%3Ffamily%3DGloria%2BHallelujah;fontSize=14;fontColor=default;labelBackgroundColor=default;endArrow=classic;flowAnimation=1;" parent="1" source="rA6aza_w5iIKAxAunfqu-42" edge="1">
          <mxGeometry relative="1" as="geometry">
            <mxPoint x="295" y="630.0000000000002" as="targetPoint" />
          </mxGeometry>
        </mxCell>
        <mxCell id="rA6aza_w5iIKAxAunfqu-42" value="" style="shape=image;imageAspect=0;aspect=fixed;verticalLabelPosition=bottom;verticalAlign=top;sketch=1;hachureGap=4;jiggle=2;curveFitting=1;fontFamily=Architects Daughter;fontSource=https%3A%2F%2Ffonts.googleapis.com%2Fcss%3Ffamily%3DArchitects%2BDaughter;fontSize=11;fontColor=default;labelBackgroundColor=default;image=https://cdni.iconscout.com/illustration/premium/thumb/hacker-3354776-2810790.png?f=webp;" parent="1" vertex="1">
          <mxGeometry x="190" y="790" width="210" height="210" as="geometry" />
        </mxCell>
        <mxCell id="rA6aza_w5iIKAxAunfqu-48" value="" style="verticalLabelPosition=bottom;sketch=0;aspect=fixed;html=1;verticalAlign=top;strokeColor=none;align=center;outlineConnect=0;shape=mxgraph.citrix.laptop_2;hachureGap=4;jiggle=2;curveFitting=1;fontFamily=Architects Daughter;fontSource=https%3A%2F%2Ffonts.googleapis.com%2Fcss%3Ffamily%3DArchitects%2BDaughter;fontSize=11;fontColor=default;labelBackgroundColor=default;" parent="1" vertex="1">
          <mxGeometry x="-310" y="490" width="75.77" height="56.5" as="geometry" />
        </mxCell>
        <mxCell id="rA6aza_w5iIKAxAunfqu-49" value="" style="verticalLabelPosition=bottom;sketch=0;aspect=fixed;html=1;verticalAlign=top;strokeColor=none;align=center;outlineConnect=0;shape=mxgraph.citrix.laptop_2;hachureGap=4;jiggle=2;curveFitting=1;fontFamily=Architects Daughter;fontSource=https%3A%2F%2Ffonts.googleapis.com%2Fcss%3Ffamily%3DArchitects%2BDaughter;fontSize=11;fontColor=default;labelBackgroundColor=default;" parent="1" vertex="1">
          <mxGeometry x="-220" y="490" width="75.77" height="56.5" as="geometry" />
        </mxCell>
        <mxCell id="rA6aza_w5iIKAxAunfqu-52" value="" style="image;points=[];aspect=fixed;html=1;align=center;shadow=0;dashed=0;image=img/lib/allied_telesis/computer_and_terminals/Personal_Computer_with_Server.svg;sketch=1;hachureGap=4;jiggle=2;curveFitting=1;fontFamily=Architects Daughter;fontSource=https%3A%2F%2Ffonts.googleapis.com%2Fcss%3Ffamily%3DArchitects%2BDaughter;fontSize=11;fontColor=default;labelBackgroundColor=default;" parent="1" vertex="1">
          <mxGeometry x="-307.11" y="690" width="70" height="70" as="geometry" />
        </mxCell>
        <mxCell id="rA6aza_w5iIKAxAunfqu-53" value="" style="image;points=[];aspect=fixed;html=1;align=center;shadow=0;dashed=0;image=img/lib/allied_telesis/computer_and_terminals/Personal_Computer_with_Server.svg;sketch=1;hachureGap=4;jiggle=2;curveFitting=1;fontFamily=Architects Daughter;fontSource=https%3A%2F%2Ffonts.googleapis.com%2Fcss%3Ffamily%3DArchitects%2BDaughter;fontSize=11;fontColor=default;labelBackgroundColor=default;" parent="1" vertex="1">
          <mxGeometry x="-220" y="690" width="70" height="70" as="geometry" />
        </mxCell>
        <mxCell id="rA6aza_w5iIKAxAunfqu-54" value="" style="verticalLabelPosition=bottom;verticalAlign=top;html=1;shadow=0;dashed=0;strokeWidth=1;shape=mxgraph.android.phone2;strokeColor=#c0c0c0;sketch=1;hachureGap=4;jiggle=2;curveFitting=1;fontFamily=Architects Daughter;fontSource=https%3A%2F%2Ffonts.googleapis.com%2Fcss%3Ffamily%3DArchitects%2BDaughter;fontSize=11;fontColor=default;labelBackgroundColor=default;" parent="1" vertex="1">
          <mxGeometry x="-120" y="690" width="35.9" height="70" as="geometry" />
        </mxCell>
        <mxCell id="rA6aza_w5iIKAxAunfqu-55" value="" style="verticalLabelPosition=bottom;verticalAlign=top;html=1;shadow=0;dashed=0;strokeWidth=1;shape=mxgraph.android.phone2;strokeColor=#c0c0c0;sketch=1;hachureGap=4;jiggle=2;curveFitting=1;fontFamily=Architects Daughter;fontSource=https%3A%2F%2Ffonts.googleapis.com%2Fcss%3Ffamily%3DArchitects%2BDaughter;fontSize=11;fontColor=default;labelBackgroundColor=default;" parent="1" vertex="1">
          <mxGeometry x="-120" y="480" width="35.9" height="70" as="geometry" />
        </mxCell>
        <mxCell id="rA6aza_w5iIKAxAunfqu-64" style="edgeStyle=orthogonalEdgeStyle;curved=1;rounded=0;hachureGap=4;orthogonalLoop=1;jettySize=auto;html=1;exitX=0;exitY=0.5;exitDx=0;exitDy=0;strokeColor=default;strokeWidth=2;align=center;verticalAlign=middle;fontFamily=Architects Daughter;fontSource=https%3A%2F%2Ffonts.googleapis.com%2Fcss%3Ffamily%3DArchitects%2BDaughter;fontSize=18;fontColor=default;labelBackgroundColor=default;endArrow=classic;flowAnimation=1;" parent="1" source="rA6aza_w5iIKAxAunfqu-56" target="rA6aza_w5iIKAxAunfqu-62" edge="1">
          <mxGeometry relative="1" as="geometry" />
        </mxCell>
        <mxCell id="rA6aza_w5iIKAxAunfqu-56" value="Cloud NGFW" style="shape=image;verticalLabelPosition=bottom;labelBackgroundColor=default;verticalAlign=top;aspect=fixed;imageAspect=0;image=https://www.paloaltonetworks.com.au/content/dam/pan/en_US/includes/igw/cloud-ngfw/assets/images/overview/circle-logo-1.png;fontFamily=Gloria Hallelujah;fontSource=https%3A%2F%2Ffonts.googleapis.com%2Fcss%3Ffamily%3DGloria%2BHallelujah;fontSize=18;" parent="1" vertex="1">
          <mxGeometry x="1171.33" y="250" width="80.34" height="80" as="geometry" />
        </mxCell>
        <mxCell id="rA6aza_w5iIKAxAunfqu-63" style="edgeStyle=orthogonalEdgeStyle;curved=1;rounded=0;hachureGap=4;orthogonalLoop=1;jettySize=auto;html=1;exitX=1;exitY=0.75;exitDx=0;exitDy=0;exitPerimeter=0;entryX=0.5;entryY=0;entryDx=0;entryDy=0;strokeColor=default;strokeWidth=2;align=center;verticalAlign=middle;fontFamily=Architects Daughter;fontSource=https%3A%2F%2Ffonts.googleapis.com%2Fcss%3Ffamily%3DArchitects%2BDaughter;fontSize=18;fontColor=default;labelBackgroundColor=default;endArrow=classic;flowAnimation=1;" parent="1" source="rA6aza_w5iIKAxAunfqu-58" target="rA6aza_w5iIKAxAunfqu-56" edge="1">
          <mxGeometry relative="1" as="geometry" />
        </mxCell>
        <mxCell id="rA6aza_w5iIKAxAunfqu-58" value="Cloud Front" style="sketch=0;points=[[0,0,0],[0.25,0,0],[0.5,0,0],[0.75,0,0],[1,0,0],[0,1,0],[0.25,1,0],[0.5,1,0],[0.75,1,0],[1,1,0],[0,0.25,0],[0,0.5,0],[0,0.75,0],[1,0.25,0],[1,0.5,0],[1,0.75,0]];outlineConnect=0;fontColor=#FFFFFF;fillColor=#8C4FFF;strokeColor=#ffffff;dashed=0;verticalLabelPosition=bottom;verticalAlign=top;align=center;html=1;fontSize=18;fontStyle=0;aspect=fixed;shape=mxgraph.aws4.resourceIcon;resIcon=mxgraph.aws4.cloudfront;hachureGap=4;jiggle=2;curveFitting=1;fontFamily=Architects Daughter;fontSource=https%3A%2F%2Ffonts.googleapis.com%2Fcss%3Ffamily%3DArchitects%2BDaughter;labelBackgroundColor=default;" parent="1" vertex="1">
          <mxGeometry x="1091" y="110" width="78" height="78" as="geometry" />
        </mxCell>
        <mxCell id="rA6aza_w5iIKAxAunfqu-59" value="S3" style="sketch=0;points=[[0,0,0],[0.25,0,0],[0.5,0,0],[0.75,0,0],[1,0,0],[0,1,0],[0.25,1,0],[0.5,1,0],[0.75,1,0],[1,1,0],[0,0.25,0],[0,0.5,0],[0,0.75,0],[1,0.25,0],[1,0.5,0],[1,0.75,0]];outlineConnect=0;fontColor=#FFFFFF;fillColor=#7AA116;strokeColor=#ffffff;dashed=0;verticalLabelPosition=bottom;verticalAlign=top;align=center;html=1;fontSize=18;fontStyle=0;aspect=fixed;shape=mxgraph.aws4.resourceIcon;resIcon=mxgraph.aws4.s3;hachureGap=4;jiggle=2;curveFitting=1;fontFamily=Architects Daughter;fontSource=https%3A%2F%2Ffonts.googleapis.com%2Fcss%3Ffamily%3DArchitects%2BDaughter;labelBackgroundColor=default;" parent="1" vertex="1">
          <mxGeometry x="950.3299999999999" y="110" width="78" height="78" as="geometry" />
        </mxCell>
        <mxCell id="rA6aza_w5iIKAxAunfqu-60" style="edgeStyle=orthogonalEdgeStyle;curved=1;rounded=0;hachureGap=4;orthogonalLoop=1;jettySize=auto;html=1;exitX=0;exitY=0.5;exitDx=0;exitDy=0;exitPerimeter=0;entryX=1;entryY=0.5;entryDx=0;entryDy=0;entryPerimeter=0;strokeColor=default;strokeWidth=2;align=center;verticalAlign=middle;fontFamily=Architects Daughter;fontSource=https%3A%2F%2Ffonts.googleapis.com%2Fcss%3Ffamily%3DArchitects%2BDaughter;fontSize=18;fontColor=default;labelBackgroundColor=default;endArrow=classic;flowAnimation=1;" parent="1" source="rA6aza_w5iIKAxAunfqu-58" target="rA6aza_w5iIKAxAunfqu-59" edge="1">
          <mxGeometry relative="1" as="geometry" />
        </mxCell>
        <mxCell id="rA6aza_w5iIKAxAunfqu-71" style="edgeStyle=orthogonalEdgeStyle;curved=1;rounded=0;hachureGap=4;orthogonalLoop=1;jettySize=auto;html=1;exitX=0;exitY=0.5;exitDx=0;exitDy=0;exitPerimeter=0;entryX=1;entryY=0.25;entryDx=0;entryDy=0;strokeColor=default;strokeWidth=2;align=center;verticalAlign=middle;fontFamily=Architects Daughter;fontSource=https%3A%2F%2Ffonts.googleapis.com%2Fcss%3Ffamily%3DArchitects%2BDaughter;fontSize=18;fontColor=default;labelBackgroundColor=default;endArrow=classic;flowAnimation=1;" parent="1" source="rA6aza_w5iIKAxAunfqu-62" target="rA6aza_w5iIKAxAunfqu-65" edge="1">
          <mxGeometry relative="1" as="geometry" />
        </mxCell>
        <mxCell id="rA6aza_w5iIKAxAunfqu-62" value="Load Balancer" style="sketch=0;points=[[0,0,0],[0.25,0,0],[0.5,0,0],[0.75,0,0],[1,0,0],[0,1,0],[0.25,1,0],[0.5,1,0],[0.75,1,0],[1,1,0],[0,0.25,0],[0,0.5,0],[0,0.75,0],[1,0.25,0],[1,0.5,0],[1,0.75,0]];outlineConnect=0;fontColor=#FFFFFF;fillColor=#8C4FFF;strokeColor=#ffffff;dashed=0;verticalLabelPosition=bottom;verticalAlign=top;align=center;html=1;fontSize=18;fontStyle=0;aspect=fixed;shape=mxgraph.aws4.resourceIcon;resIcon=mxgraph.aws4.elastic_load_balancing;hachureGap=4;jiggle=2;curveFitting=1;fontFamily=Architects Daughter;fontSource=https%3A%2F%2Ffonts.googleapis.com%2Fcss%3Ffamily%3DArchitects%2BDaughter;labelBackgroundColor=default;" parent="1" vertex="1">
          <mxGeometry x="1028.33" y="256" width="68" height="68" as="geometry" />
        </mxCell>
        <mxCell id="rA6aza_w5iIKAxAunfqu-65" value="" style="rounded=1;whiteSpace=wrap;html=1;sketch=1;hachureGap=4;jiggle=2;curveFitting=1;fontFamily=Architects Daughter;fontSource=https%3A%2F%2Ffonts.googleapis.com%2Fcss%3Ffamily%3DArchitects%2BDaughter;fontSize=18;labelBackgroundColor=default;fillColor=none;" parent="1" vertex="1">
          <mxGeometry x="630" y="340" width="200" height="100" as="geometry" />
        </mxCell>
        <mxCell id="rA6aza_w5iIKAxAunfqu-66" value="EKS" style="sketch=0;points=[[0,0,0],[0.25,0,0],[0.5,0,0],[0.75,0,0],[1,0,0],[0,1,0],[0.25,1,0],[0.5,1,0],[0.75,1,0],[1,1,0],[0,0.25,0],[0,0.5,0],[0,0.75,0],[1,0.25,0],[1,0.5,0],[1,0.75,0]];outlineConnect=0;fontColor=#FFFFFF;fillColor=#ED7100;strokeColor=#ffffff;dashed=0;verticalLabelPosition=bottom;verticalAlign=top;align=center;html=1;fontSize=18;fontStyle=0;aspect=fixed;shape=mxgraph.aws4.resourceIcon;resIcon=mxgraph.aws4.eks;hachureGap=4;jiggle=2;curveFitting=1;fontFamily=Architects Daughter;fontSource=https%3A%2F%2Ffonts.googleapis.com%2Fcss%3Ffamily%3DArchitects%2BDaughter;labelBackgroundColor=default;" parent="1" vertex="1">
          <mxGeometry x="600" y="400" width="58" height="58" as="geometry" />
        </mxCell>
        <mxCell id="rA6aza_w5iIKAxAunfqu-67" value="EC2" style="sketch=0;points=[[0,0,0],[0.25,0,0],[0.5,0,0],[0.75,0,0],[1,0,0],[0,1,0],[0.25,1,0],[0.5,1,0],[0.75,1,0],[1,1,0],[0,0.25,0],[0,0.5,0],[0,0.75,0],[1,0.25,0],[1,0.5,0],[1,0.75,0]];outlineConnect=0;fontColor=#FFFFFF;fillColor=#ED7100;strokeColor=#ffffff;dashed=0;verticalLabelPosition=bottom;verticalAlign=top;align=center;html=1;fontSize=18;fontStyle=0;aspect=fixed;shape=mxgraph.aws4.resourceIcon;resIcon=mxgraph.aws4.ec2;hachureGap=4;jiggle=2;curveFitting=1;fontFamily=Architects Daughter;fontSource=https%3A%2F%2Ffonts.googleapis.com%2Fcss%3Ffamily%3DArchitects%2BDaughter;labelBackgroundColor=default;" parent="1" vertex="1">
          <mxGeometry x="670" y="354" width="56" height="56" as="geometry" />
        </mxCell>
        <mxCell id="rA6aza_w5iIKAxAunfqu-69" value="EC2" style="sketch=0;points=[[0,0,0],[0.25,0,0],[0.5,0,0],[0.75,0,0],[1,0,0],[0,1,0],[0.25,1,0],[0.5,1,0],[0.75,1,0],[1,1,0],[0,0.25,0],[0,0.5,0],[0,0.75,0],[1,0.25,0],[1,0.5,0],[1,0.75,0]];outlineConnect=0;fontColor=#FFFFFF;fillColor=#ED7100;strokeColor=#ffffff;dashed=0;verticalLabelPosition=bottom;verticalAlign=top;align=center;html=1;fontSize=18;fontStyle=0;aspect=fixed;shape=mxgraph.aws4.resourceIcon;resIcon=mxgraph.aws4.ec2;hachureGap=4;jiggle=2;curveFitting=1;fontFamily=Architects Daughter;fontSource=https%3A%2F%2Ffonts.googleapis.com%2Fcss%3Ffamily%3DArchitects%2BDaughter;labelBackgroundColor=default;" parent="1" vertex="1">
          <mxGeometry x="750" y="354" width="56" height="56" as="geometry" />
        </mxCell>
        <mxCell id="rA6aza_w5iIKAxAunfqu-78" value="Opensearch" style="shape=image;verticalLabelPosition=bottom;labelBackgroundColor=default;verticalAlign=top;aspect=fixed;imageAspect=0;image=https://nemeon.io/wp-content/uploads/2023/12/opensearch-service.png;fontFamily=Gloria Hallelujah;fontSource=https%3A%2F%2Ffonts.googleapis.com%2Fcss%3Ffamily%3DGloria%2BHallelujah;fontSize=18;fontColor=#FFFFFF;" parent="1" vertex="1">
          <mxGeometry x="1082.43" y="690" width="80" height="80" as="geometry" />
        </mxCell>
        <mxCell id="rA6aza_w5iIKAxAunfqu-79" value="SageMaker&lt;div style=&quot;font-size: 18px;&quot;&gt;(LLM for Embedding)&lt;/div&gt;" style="sketch=0;points=[[0,0,0],[0.25,0,0],[0.5,0,0],[0.75,0,0],[1,0,0],[0,1,0],[0.25,1,0],[0.5,1,0],[0.75,1,0],[1,1,0],[0,0.25,0],[0,0.5,0],[0,0.75,0],[1,0.25,0],[1,0.5,0],[1,0.75,0]];outlineConnect=0;fontColor=#FFFFFF;fillColor=#01A88D;strokeColor=#ffffff;dashed=0;verticalLabelPosition=bottom;verticalAlign=top;align=center;html=1;fontSize=18;fontStyle=0;aspect=fixed;shape=mxgraph.aws4.resourceIcon;resIcon=mxgraph.aws4.sagemaker;fontFamily=Gloria Hallelujah;fontSource=https%3A%2F%2Ffonts.googleapis.com%2Fcss%3Ffamily%3DGloria%2BHallelujah;labelBackgroundColor=default;" parent="1" vertex="1">
          <mxGeometry x="840" y="630" width="78" height="78" as="geometry" />
        </mxCell>
        <mxCell id="WuPXo1o1_WAH7fLLWVi5-2" style="edgeStyle=orthogonalEdgeStyle;curved=1;rounded=0;hachureGap=4;orthogonalLoop=1;jettySize=auto;html=1;exitX=1;exitY=0.5;exitDx=0;exitDy=0;exitPerimeter=0;entryX=1;entryY=0.5;entryDx=0;entryDy=0;strokeColor=default;strokeWidth=2;align=center;verticalAlign=middle;fontFamily=Architects Daughter;fontSource=https%3A%2F%2Ffonts.googleapis.com%2Fcss%3Ffamily%3DArchitects%2BDaughter;fontSize=18;fontColor=default;labelBackgroundColor=default;endArrow=classic;flowAnimation=1;" parent="1" source="rA6aza_w5iIKAxAunfqu-80" target="rA6aza_w5iIKAxAunfqu-78" edge="1">
          <mxGeometry relative="1" as="geometry">
            <Array as="points">
              <mxPoint x="1210" y="611" />
              <mxPoint x="1210" y="730" />
            </Array>
          </mxGeometry>
        </mxCell>
        <mxCell id="rA6aza_w5iIKAxAunfqu-80" value="RAG Lambda&lt;div style=&quot;font-size: 18px;&quot;&gt;App&lt;/div&gt;" style="sketch=0;points=[[0,0,0],[0.25,0,0],[0.5,0,0],[0.75,0,0],[1,0,0],[0,1,0],[0.25,1,0],[0.5,1,0],[0.75,1,0],[1,1,0],[0,0.25,0],[0,0.5,0],[0,0.75,0],[1,0.25,0],[1,0.5,0],[1,0.75,0]];outlineConnect=0;fontColor=#FFFFFF;fillColor=#ED7100;strokeColor=#ffffff;dashed=0;verticalLabelPosition=bottom;verticalAlign=top;align=center;html=1;fontSize=18;fontStyle=0;aspect=fixed;shape=mxgraph.aws4.resourceIcon;resIcon=mxgraph.aws4.lambda;fontFamily=Gloria Hallelujah;fontSource=https%3A%2F%2Ffonts.googleapis.com%2Fcss%3Ffamily%3DGloria%2BHallelujah;labelBackgroundColor=default;" parent="1" vertex="1">
          <mxGeometry x="1091.0000000000002" y="580" width="61.25" height="61.25" as="geometry" />
        </mxCell>
        <mxCell id="rA6aza_w5iIKAxAunfqu-81" value="RDS" style="sketch=0;points=[[0,0,0],[0.25,0,0],[0.5,0,0],[0.75,0,0],[1,0,0],[0,1,0],[0.25,1,0],[0.5,1,0],[0.75,1,0],[1,1,0],[0,0.25,0],[0,0.5,0],[0,0.75,0],[1,0.25,0],[1,0.5,0],[1,0.75,0]];outlineConnect=0;fontColor=#FFFFFF;fillColor=#C925D1;strokeColor=#ffffff;dashed=0;verticalLabelPosition=bottom;verticalAlign=top;align=center;html=1;fontSize=18;fontStyle=0;aspect=fixed;shape=mxgraph.aws4.resourceIcon;resIcon=mxgraph.aws4.rds;fontFamily=Gloria Hallelujah;fontSource=https%3A%2F%2Ffonts.googleapis.com%2Fcss%3Ffamily%3DGloria%2BHallelujah;labelBackgroundColor=default;" parent="1" vertex="1">
          <mxGeometry x="1027" y="812" width="78" height="78" as="geometry" />
        </mxCell>
        <mxCell id="rA6aza_w5iIKAxAunfqu-82" value="S3" style="sketch=0;points=[[0,0,0],[0.25,0,0],[0.5,0,0],[0.75,0,0],[1,0,0],[0,1,0],[0.25,1,0],[0.5,1,0],[0.75,1,0],[1,1,0],[0,0.25,0],[0,0.5,0],[0,0.75,0],[1,0.25,0],[1,0.5,0],[1,0.75,0]];outlineConnect=0;fontColor=#FFFFFF;fillColor=#7AA116;strokeColor=#ffffff;dashed=0;verticalLabelPosition=bottom;verticalAlign=top;align=center;html=1;fontSize=18;fontStyle=0;aspect=fixed;shape=mxgraph.aws4.resourceIcon;resIcon=mxgraph.aws4.s3;hachureGap=4;jiggle=2;curveFitting=1;fontFamily=Architects Daughter;fontSource=https%3A%2F%2Ffonts.googleapis.com%2Fcss%3Ffamily%3DArchitects%2BDaughter;labelBackgroundColor=default;" parent="1" vertex="1">
          <mxGeometry x="1140" y="812" width="78" height="78" as="geometry" />
        </mxCell>
        <mxCell id="rA6aza_w5iIKAxAunfqu-86" style="edgeStyle=orthogonalEdgeStyle;curved=1;rounded=0;hachureGap=4;orthogonalLoop=1;jettySize=auto;html=1;exitX=1;exitY=0.5;exitDx=0;exitDy=0;exitPerimeter=0;entryX=0;entryY=0.75;entryDx=0;entryDy=0;strokeColor=default;strokeWidth=2;align=center;verticalAlign=middle;fontFamily=Gloria Hallelujah;fontSource=https%3A%2F%2Ffonts.googleapis.com%2Fcss%3Ffamily%3DGloria%2BHallelujah;fontSize=18;fontColor=default;labelBackgroundColor=default;endArrow=classic;flowAnimation=1;" parent="1" source="rA6aza_w5iIKAxAunfqu-84" target="rA6aza_w5iIKAxAunfqu-78" edge="1">
          <mxGeometry relative="1" as="geometry">
            <Array as="points">
              <mxPoint x="970" y="851" />
              <mxPoint x="970" y="750" />
            </Array>
          </mxGeometry>
        </mxCell>
        <mxCell id="rA6aza_w5iIKAxAunfqu-84" value="SageMaker&lt;div style=&quot;font-size: 18px;&quot;&gt;(Document to Embedding)&lt;/div&gt;" style="sketch=0;points=[[0,0,0],[0.25,0,0],[0.5,0,0],[0.75,0,0],[1,0,0],[0,1,0],[0.25,1,0],[0.5,1,0],[0.75,1,0],[1,1,0],[0,0.25,0],[0,0.5,0],[0,0.75,0],[1,0.25,0],[1,0.5,0],[1,0.75,0]];outlineConnect=0;fontColor=#FFFFFF;fillColor=#01A88D;strokeColor=#ffffff;dashed=0;verticalLabelPosition=bottom;verticalAlign=top;align=center;html=1;fontSize=18;fontStyle=0;aspect=fixed;shape=mxgraph.aws4.resourceIcon;resIcon=mxgraph.aws4.sagemaker;fontFamily=Gloria Hallelujah;fontSource=https%3A%2F%2Ffonts.googleapis.com%2Fcss%3Ffamily%3DGloria%2BHallelujah;labelBackgroundColor=default;" parent="1" vertex="1">
          <mxGeometry x="840" y="812" width="78" height="78" as="geometry" />
        </mxCell>
        <mxCell id="rA6aza_w5iIKAxAunfqu-85" style="edgeStyle=orthogonalEdgeStyle;curved=1;rounded=0;hachureGap=4;orthogonalLoop=1;jettySize=auto;html=1;exitX=0;exitY=0.5;exitDx=0;exitDy=0;entryX=1;entryY=0.75;entryDx=0;entryDy=0;entryPerimeter=0;strokeColor=default;strokeWidth=2;align=center;verticalAlign=middle;fontFamily=Gloria Hallelujah;fontSource=https%3A%2F%2Ffonts.googleapis.com%2Fcss%3Ffamily%3DGloria%2BHallelujah;fontSize=18;fontColor=default;labelBackgroundColor=default;endArrow=classic;flowAnimation=1;" parent="1" source="rA6aza_w5iIKAxAunfqu-83" target="rA6aza_w5iIKAxAunfqu-84" edge="1">
          <mxGeometry relative="1" as="geometry" />
        </mxCell>
        <mxCell id="rA6aza_w5iIKAxAunfqu-87" style="edgeStyle=orthogonalEdgeStyle;curved=1;rounded=0;hachureGap=4;orthogonalLoop=1;jettySize=auto;html=1;exitX=0;exitY=0.5;exitDx=0;exitDy=0;exitPerimeter=0;entryX=0;entryY=0.5;entryDx=0;entryDy=0;entryPerimeter=0;strokeColor=default;strokeWidth=2;align=center;verticalAlign=middle;fontFamily=Gloria Hallelujah;fontSource=https%3A%2F%2Ffonts.googleapis.com%2Fcss%3Ffamily%3DGloria%2BHallelujah;fontSize=18;fontColor=default;labelBackgroundColor=default;endArrow=classic;flowAnimation=1;" parent="1" source="rA6aza_w5iIKAxAunfqu-84" target="rA6aza_w5iIKAxAunfqu-79" edge="1">
          <mxGeometry relative="1" as="geometry">
            <Array as="points">
              <mxPoint x="780" y="851" />
              <mxPoint x="780" y="669" />
            </Array>
          </mxGeometry>
        </mxCell>
        <mxCell id="rA6aza_w5iIKAxAunfqu-88" style="edgeStyle=orthogonalEdgeStyle;curved=1;rounded=0;hachureGap=4;orthogonalLoop=1;jettySize=auto;html=1;exitX=0;exitY=0.75;exitDx=0;exitDy=0;exitPerimeter=0;entryX=1;entryY=0.75;entryDx=0;entryDy=0;entryPerimeter=0;strokeColor=default;strokeWidth=2;align=center;verticalAlign=middle;fontFamily=Gloria Hallelujah;fontSource=https%3A%2F%2Ffonts.googleapis.com%2Fcss%3Ffamily%3DGloria%2BHallelujah;fontSize=18;fontColor=default;labelBackgroundColor=default;endArrow=classic;flowAnimation=1;" parent="1" source="rA6aza_w5iIKAxAunfqu-80" target="rA6aza_w5iIKAxAunfqu-79" edge="1">
          <mxGeometry relative="1" as="geometry" />
        </mxCell>
        <mxCell id="rA6aza_w5iIKAxAunfqu-89" style="edgeStyle=orthogonalEdgeStyle;curved=1;rounded=0;hachureGap=4;orthogonalLoop=1;jettySize=auto;html=1;exitX=0;exitY=0.5;exitDx=0;exitDy=0;exitPerimeter=0;entryX=0.992;entryY=0.595;entryDx=0;entryDy=0;entryPerimeter=0;strokeColor=default;strokeWidth=2;align=center;verticalAlign=middle;fontFamily=Gloria Hallelujah;fontSource=https%3A%2F%2Ffonts.googleapis.com%2Fcss%3Ffamily%3DGloria%2BHallelujah;fontSize=14;fontColor=default;labelBackgroundColor=default;endArrow=classic;flowAnimation=1;" parent="1" source="rA6aza_w5iIKAxAunfqu-80" target="rA6aza_w5iIKAxAunfqu-2" edge="1">
          <mxGeometry relative="1" as="geometry">
            <Array as="points">
              <mxPoint x="1082" y="610" />
              <mxPoint x="540" y="610" />
              <mxPoint x="540" y="391" />
            </Array>
          </mxGeometry>
        </mxCell>
        <mxCell id="rA6aza_w5iIKAxAunfqu-92" value="Application Users" style="shape=umlActor;verticalLabelPosition=bottom;verticalAlign=top;html=1;outlineConnect=0;strokeColor=default;align=center;fontFamily=Gloria Hallelujah;fontSource=https%3A%2F%2Ffonts.googleapis.com%2Fcss%3Ffamily%3DGloria%2BHallelujah;fontSize=18;fontColor=default;labelBackgroundColor=default;fillColor=default;sketch=1;curveFitting=1;jiggle=2;" parent="1" vertex="1">
          <mxGeometry x="1400" y="80" width="50" height="100" as="geometry" />
        </mxCell>
        <mxCell id="rA6aza_w5iIKAxAunfqu-95" value="" style="shape=curlyBracket;whiteSpace=wrap;html=1;rounded=1;labelPosition=left;verticalLabelPosition=middle;align=right;verticalAlign=middle;sketch=1;jiggle=2;curveFitting=1;strokeColor=default;fontFamily=Gloria Hallelujah;fontSource=https%3A%2F%2Ffonts.googleapis.com%2Fcss%3Ffamily%3DGloria%2BHallelujah;fontSize=26;fontColor=default;labelBackgroundColor=default;fillColor=default;rotation=-90;" parent="1" vertex="1">
          <mxGeometry x="-615" y="745" width="20" height="330" as="geometry" />
        </mxCell>
        <mxCell id="rA6aza_w5iIKAxAunfqu-96" value="Persona" style="text;html=1;align=center;verticalAlign=middle;whiteSpace=wrap;rounded=0;fontFamily=Gloria Hallelujah;fontSource=https%3A%2F%2Ffonts.googleapis.com%2Fcss%3Ffamily%3DGloria%2BHallelujah;fontSize=22;fontColor=default;labelBackgroundColor=default;" parent="1" vertex="1">
          <mxGeometry x="-635" y="940" width="60" height="30" as="geometry" />
        </mxCell>
        <mxCell id="rA6aza_w5iIKAxAunfqu-97" value="" style="shape=curlyBracket;whiteSpace=wrap;html=1;rounded=1;labelPosition=left;verticalLabelPosition=middle;align=right;verticalAlign=middle;sketch=1;jiggle=2;curveFitting=1;strokeColor=default;fontFamily=Gloria Hallelujah;fontSource=https%3A%2F%2Ffonts.googleapis.com%2Fcss%3Ffamily%3DGloria%2BHallelujah;fontSize=26;fontColor=default;labelBackgroundColor=default;fillColor=default;rotation=-90;" parent="1" vertex="1">
          <mxGeometry x="-207.5" y="732.5" width="20" height="355" as="geometry" />
        </mxCell>
        <mxCell id="rA6aza_w5iIKAxAunfqu-98" value="Protection Approaches" style="text;html=1;align=center;verticalAlign=middle;whiteSpace=wrap;rounded=0;fontFamily=Gloria Hallelujah;fontSource=https%3A%2F%2Ffonts.googleapis.com%2Fcss%3Ffamily%3DGloria%2BHallelujah;fontSize=22;fontColor=default;labelBackgroundColor=default;" parent="1" vertex="1">
          <mxGeometry x="-227.5" y="940" width="60" height="30" as="geometry" />
        </mxCell>
        <mxCell id="rA6aza_w5iIKAxAunfqu-99" value="" style="sketch=0;points=[[0.015,0.015,0],[0.985,0.015,0],[0.985,0.985,0],[0.015,0.985,0],[0.25,0,0],[0.5,0,0],[0.75,0,0],[1,0.25,0],[1,0.5,0],[1,0.75,0],[0.75,1,0],[0.5,1,0],[0.25,1,0],[0,0.75,0],[0,0.5,0],[0,0.25,0]];verticalLabelPosition=bottom;html=1;verticalAlign=top;aspect=fixed;align=center;pointerEvents=1;shape=mxgraph.cisco19.rect;prIcon=firewall;fillColor=#FF8000;strokeColor=#005073;jiggle=2;curveFitting=1;fontFamily=Gloria Hallelujah;fontSource=https%3A%2F%2Ffonts.googleapis.com%2Fcss%3Ffamily%3DGloria%2BHallelujah;fontSize=26;fontColor=default;labelBackgroundColor=default;" parent="1" vertex="1">
          <mxGeometry x="-60" y="662" width="48.64" height="38" as="geometry" />
        </mxCell>
        <mxCell id="rA6aza_w5iIKAxAunfqu-100" value="" style="sketch=0;points=[[0.015,0.015,0],[0.985,0.015,0],[0.985,0.985,0],[0.015,0.985,0],[0.25,0,0],[0.5,0,0],[0.75,0,0],[1,0.25,0],[1,0.5,0],[1,0.75,0],[0.75,1,0],[0.5,1,0],[0.25,1,0],[0,0.75,0],[0,0.5,0],[0,0.25,0]];verticalLabelPosition=bottom;html=1;verticalAlign=top;aspect=fixed;align=center;pointerEvents=1;shape=mxgraph.cisco19.rect;prIcon=firewall;fillColor=#FF8000;strokeColor=#005073;jiggle=2;curveFitting=1;fontFamily=Gloria Hallelujah;fontSource=https%3A%2F%2Ffonts.googleapis.com%2Fcss%3Ffamily%3DGloria%2BHallelujah;fontSize=26;fontColor=default;labelBackgroundColor=default;" parent="1" vertex="1">
          <mxGeometry x="-60" y="452" width="48.64" height="38" as="geometry" />
        </mxCell>
        <mxCell id="rA6aza_w5iIKAxAunfqu-103" value="" style="ellipse;shape=cloud;whiteSpace=wrap;html=1;strokeColor=#666666;align=center;verticalAlign=middle;fontFamily=Gloria Hallelujah;fontSource=https%3A%2F%2Ffonts.googleapis.com%2Fcss%3Ffamily%3DGloria%2BHallelujah;fontSize=26;fontColor=#333333;labelBackgroundColor=default;fillColor=#f5f5f5;" parent="1" vertex="1">
          <mxGeometry x="240" y="190" width="171.36" height="130" as="geometry" />
        </mxCell>
        <mxCell id="rA6aza_w5iIKAxAunfqu-102" value="" style="shape=image;verticalLabelPosition=bottom;labelBackgroundColor=default;verticalAlign=top;aspect=fixed;imageAspect=0;image=https://upload.wikimedia.org/wikipedia/commons/thumb/9/93/Amazon_Web_Services_Logo.svg/1280px-Amazon_Web_Services_Logo.svg.png;" parent="1" vertex="1">
          <mxGeometry x="288" y="235" width="83.4" height="49.9" as="geometry" />
        </mxCell>
        <mxCell id="rA6aza_w5iIKAxAunfqu-90" value="SageMaker&lt;div style=&quot;font-size: 19px;&quot;&gt;(LLM for Text)&lt;/div&gt;" style="sketch=0;points=[[0,0,0],[0.25,0,0],[0.5,0,0],[0.75,0,0],[1,0,0],[0,1,0],[0.25,1,0],[0.5,1,0],[0.75,1,0],[1,1,0],[0,0.25,0],[0,0.5,0],[0,0.75,0],[1,0.25,0],[1,0.5,0],[1,0.75,0]];outlineConnect=0;fontColor=#232F3E;fillColor=#01A88D;strokeColor=#ffffff;dashed=0;verticalLabelPosition=bottom;verticalAlign=top;align=center;html=1;fontSize=19;fontStyle=0;aspect=fixed;shape=mxgraph.aws4.resourceIcon;resIcon=mxgraph.aws4.sagemaker;fontFamily=Gloria Hallelujah;fontSource=https%3A%2F%2Ffonts.googleapis.com%2Fcss%3Ffamily%3DGloria%2BHallelujah;labelBackgroundColor=none;" parent="1" vertex="1">
          <mxGeometry x="368" y="302" width="78" height="78" as="geometry" />
        </mxCell>
        <mxCell id="rA6aza_w5iIKAxAunfqu-104" value="" style="shape=curlyBracket;whiteSpace=wrap;html=1;rounded=1;flipH=1;labelPosition=right;verticalLabelPosition=middle;align=left;verticalAlign=middle;sketch=1;jiggle=2;curveFitting=1;strokeColor=default;fontFamily=Gloria Hallelujah;fontSource=https%3A%2F%2Ffonts.googleapis.com%2Fcss%3Ffamily%3DGloria%2BHallelujah;fontSize=18;fontColor=default;labelBackgroundColor=default;fillColor=default;" parent="1" vertex="1">
          <mxGeometry x="1330" y="240" width="20" height="740" as="geometry" />
        </mxCell>
        <mxCell id="rA6aza_w5iIKAxAunfqu-105" value="Landing Zone&lt;div style=&quot;font-size: 26px;&quot;&gt;Approach&lt;/div&gt;" style="text;html=1;align=center;verticalAlign=middle;whiteSpace=wrap;rounded=0;fontFamily=Gloria Hallelujah;fontSource=https%3A%2F%2Ffonts.googleapis.com%2Fcss%3Ffamily%3DGloria%2BHallelujah;fontSize=26;fontColor=default;labelBackgroundColor=default;" parent="1" vertex="1">
          <mxGeometry x="1370" y="590" width="110" height="30" as="geometry" />
        </mxCell>
        <mxCell id="rA6aza_w5iIKAxAunfqu-106" value="GenAI Application Consumer" style="html=1;shadow=0;dashed=0;align=center;verticalAlign=middle;shape=mxgraph.arrows2.arrow;dy=0;dx=30;notch=30;sketch=1;jiggle=2;curveFitting=1;strokeColor=default;fontFamily=Gloria Hallelujah;fontSource=https%3A%2F%2Ffonts.googleapis.com%2Fcss%3Ffamily%3DGloria%2BHallelujah;fontSize=22;fontColor=default;labelBackgroundColor=default;fillColor=default;" parent="1" vertex="1">
          <mxGeometry x="-780" y="1087" width="970" height="60" as="geometry" />
        </mxCell>
        <mxCell id="rA6aza_w5iIKAxAunfqu-107" value="GenAI Application Provider" style="html=1;shadow=0;dashed=0;align=center;verticalAlign=middle;shape=mxgraph.arrows2.arrow;dy=0;dx=30;notch=30;sketch=1;jiggle=2;curveFitting=1;strokeColor=default;fontFamily=Gloria Hallelujah;fontSource=https%3A%2F%2Ffonts.googleapis.com%2Fcss%3Ffamily%3DGloria%2BHallelujah;fontSize=22;fontColor=default;labelBackgroundColor=default;fillColor=default;flipH=1;" parent="1" vertex="1">
          <mxGeometry x="390" y="1087" width="940" height="60" as="geometry" />
        </mxCell>
        <mxCell id="rA6aza_w5iIKAxAunfqu-108" value="Problem Statement: Protecting &lt;span style=&quot;background-color: rgb(0, 255, 0);&quot;&gt;&lt;font color=&quot;#000000&quot;&gt;KNOWN&lt;/font&gt;&lt;/span&gt; Data" style="text;html=1;align=center;verticalAlign=middle;whiteSpace=wrap;rounded=0;fontFamily=Gloria Hallelujah;fontSource=https%3A%2F%2Ffonts.googleapis.com%2Fcss%3Ffamily%3DGloria%2BHallelujah;fontSize=22;fontColor=default;labelBackgroundColor=default;fontStyle=1" parent="1" vertex="1">
          <mxGeometry x="-700" y="1045" width="800" height="30" as="geometry" />
        </mxCell>
        <mxCell id="rA6aza_w5iIKAxAunfqu-109" value="Problem Statement: Discovering &lt;span style=&quot;background-color: rgb(255, 255, 51);&quot;&gt;&lt;font color=&quot;#000000&quot;&gt;Unknown/Shadow&lt;/font&gt;&lt;/span&gt; Data &amp;amp; Flow" style="text;html=1;align=center;verticalAlign=middle;whiteSpace=wrap;rounded=0;fontFamily=Gloria Hallelujah;fontSource=https%3A%2F%2Ffonts.googleapis.com%2Fcss%3Ffamily%3DGloria%2BHallelujah;fontSize=22;fontColor=default;labelBackgroundColor=default;fontStyle=1" parent="1" vertex="1">
          <mxGeometry x="460" y="1045" width="800" height="30" as="geometry" />
        </mxCell>
        <mxCell id="rA6aza_w5iIKAxAunfqu-110" value="Cortex &amp;amp; Strata" style="html=1;shadow=0;dashed=0;align=center;verticalAlign=middle;shape=mxgraph.arrows2.arrow;dy=0;dx=30;notch=30;sketch=1;jiggle=2;curveFitting=1;strokeColor=default;fontFamily=Gloria Hallelujah;fontSource=https%3A%2F%2Ffonts.googleapis.com%2Fcss%3Ffamily%3DGloria%2BHallelujah;fontSize=22;fontColor=default;labelBackgroundColor=default;fillColor=default;" parent="1" vertex="1">
          <mxGeometry x="-780" y="1160" width="970" height="60" as="geometry" />
        </mxCell>
        <mxCell id="rA6aza_w5iIKAxAunfqu-111" value="Prisma Cloud" style="html=1;shadow=0;dashed=0;align=center;verticalAlign=middle;shape=mxgraph.arrows2.arrow;dy=0;dx=30;notch=30;sketch=1;jiggle=2;curveFitting=1;strokeColor=default;fontFamily=Gloria Hallelujah;fontSource=https%3A%2F%2Ffonts.googleapis.com%2Fcss%3Ffamily%3DGloria%2BHallelujah;fontSize=22;fontColor=default;labelBackgroundColor=default;fillColor=default;flipH=1;" parent="1" vertex="1">
          <mxGeometry x="390" y="1160" width="940" height="60" as="geometry" />
        </mxCell>
        <mxCell id="rA6aza_w5iIKAxAunfqu-112" value="" style="shape=image;verticalLabelPosition=bottom;labelBackgroundColor=default;verticalAlign=top;aspect=fixed;imageAspect=0;image=https://coralogix.com/wp-content/uploads/2020/10/Cortex-1000X1000.png;" parent="1" vertex="1">
          <mxGeometry x="-450" y="1162.1899999999998" width="55.63" height="55.63" as="geometry" />
        </mxCell>
        <mxCell id="rA6aza_w5iIKAxAunfqu-113" value="" style="shape=image;verticalLabelPosition=bottom;labelBackgroundColor=default;verticalAlign=top;aspect=fixed;imageAspect=0;image=https://www.exclusive-networks.com/wp-content/uploads/2023/03/strata-logo-icon.png;" parent="1" vertex="1">
          <mxGeometry x="-191" y="1169" width="36" height="40" as="geometry" />
        </mxCell>
        <mxCell id="rA6aza_w5iIKAxAunfqu-115" value="" style="shape=image;imageAspect=0;aspect=fixed;verticalLabelPosition=bottom;verticalAlign=top;sketch=1;jiggle=2;curveFitting=1;strokeColor=default;align=center;fontFamily=Gloria Hallelujah;fontSource=https%3A%2F%2Ffonts.googleapis.com%2Fcss%3Ffamily%3DGloria%2BHallelujah;fontSize=26;fontColor=default;labelBackgroundColor=default;fillColor=default;image=https://images.crunchbase.com/image/upload/c_pad,f_auto,q_auto:eco,dpr_1/rfuwf3yqq2cermkmrej6;" parent="1" vertex="1">
          <mxGeometry x="960" y="1160" width="46.04" height="60" as="geometry" />
        </mxCell>
        <mxCell id="rA6aza_w5iIKAxAunfqu-116" style="edgeStyle=orthogonalEdgeStyle;curved=1;rounded=0;hachureGap=4;orthogonalLoop=1;jettySize=auto;html=1;entryX=1;entryY=0.25;entryDx=0;entryDy=0;entryPerimeter=0;strokeColor=default;strokeWidth=2;align=center;verticalAlign=middle;fontFamily=Gloria Hallelujah;fontSource=https%3A%2F%2Ffonts.googleapis.com%2Fcss%3Ffamily%3DGloria%2BHallelujah;fontSize=18;fontColor=default;labelBackgroundColor=default;endArrow=classic;flowAnimation=1;" parent="1" source="rA6aza_w5iIKAxAunfqu-92" target="rA6aza_w5iIKAxAunfqu-58" edge="1">
          <mxGeometry relative="1" as="geometry" />
        </mxCell>
        <mxCell id="rA6aza_w5iIKAxAunfqu-119" value="Game Changing AI" style="shape=flexArrow;endArrow=classic;startArrow=classic;html=1;rounded=0;sketch=1;hachureGap=4;jiggle=2;curveFitting=1;fontFamily=Architects Daughter;fontSource=https%3A%2F%2Ffonts.googleapis.com%2Fcss%3Ffamily%3DArchitects%2BDaughter;width=40;endSize=15.385714285714286;fontSize=34;labelBackgroundColor=none;endWidth=22.857142857142858;startWidth=22.857142857142858;startSize=15.385714285714286;" parent="1" edge="1">
          <mxGeometry width="100" height="100" relative="1" as="geometry">
            <mxPoint x="400" y="35" as="sourcePoint" />
            <mxPoint x="1400" y="35" as="targetPoint" />
          </mxGeometry>
        </mxCell>
        <mxCell id="rA6aza_w5iIKAxAunfqu-7" value="Office Users (Remote)" style="rounded=0;whiteSpace=wrap;html=1;sketch=1;hachureGap=4;jiggle=2;curveFitting=1;fontFamily=Architects Daughter;fontSource=https%3A%2F%2Ffonts.googleapis.com%2Fcss%3Ffamily%3DArchitects%2BDaughter;verticalAlign=bottom;fontSize=20;fillColor=none;labelBackgroundColor=default;" parent="1" vertex="1">
          <mxGeometry x="-770" y="200" width="340" height="190" as="geometry" />
        </mxCell>
        <mxCell id="rA6aza_w5iIKAxAunfqu-11" value="Marketers" style="rounded=0;whiteSpace=wrap;html=1;sketch=1;hachureGap=4;jiggle=2;curveFitting=1;fontFamily=Architects Daughter;fontSource=https%3A%2F%2Ffonts.googleapis.com%2Fcss%3Ffamily%3DArchitects%2BDaughter;verticalAlign=bottom;fontSize=20;fillColor=none;labelBackgroundColor=default;" parent="1" vertex="1">
          <mxGeometry x="-770" y="455.7627118644068" width="340" height="154.23728813559322" as="geometry" />
        </mxCell>
        <mxCell id="rA6aza_w5iIKAxAunfqu-10" value="Programmers" style="rounded=0;whiteSpace=wrap;html=1;sketch=1;hachureGap=4;jiggle=2;curveFitting=1;fontFamily=Architects Daughter;fontSource=https%3A%2F%2Ffonts.googleapis.com%2Fcss%3Ffamily%3DArchitects%2BDaughter;verticalAlign=bottom;fontSize=20;fillColor=none;labelBackgroundColor=default;" parent="1" vertex="1">
          <mxGeometry x="-770" y="672.8789830508475" width="340" height="154.23728813559322" as="geometry" />
        </mxCell>
        <mxCell id="rA6aza_w5iIKAxAunfqu-43" value="" style="shape=image;verticalLabelPosition=bottom;labelBackgroundColor=default;verticalAlign=top;aspect=fixed;imageAspect=0;image=https://upload.wikimedia.org/wikipedia/commons/thumb/9/9e/Office_365_app_logos.svg/800px-Office_365_app_logos.svg.png;" parent="1" vertex="1">
          <mxGeometry x="-762.96" y="240" width="325.93" height="110" as="geometry" />
        </mxCell>
        <mxCell id="rA6aza_w5iIKAxAunfqu-44" value="Code&lt;div style=&quot;font-size: 14px;&quot;&gt;Wisper&lt;/div&gt;" style="sketch=0;points=[[0,0,0],[0.25,0,0],[0.5,0,0],[0.75,0,0],[1,0,0],[0,1,0],[0.25,1,0],[0.5,1,0],[0.75,1,0],[1,1,0],[0,0.25,0],[0,0.5,0],[0,0.75,0],[1,0.25,0],[1,0.5,0],[1,0.75,0]];outlineConnect=0;fontColor=#FFFFFF;fillColor=#01A88D;strokeColor=#ffffff;dashed=0;verticalLabelPosition=bottom;verticalAlign=top;align=center;html=1;fontSize=14;fontStyle=0;aspect=fixed;shape=mxgraph.aws4.resourceIcon;resIcon=mxgraph.aws4.codewhisperer;hachureGap=4;jiggle=2;curveFitting=1;fontFamily=Architects Daughter;fontSource=https%3A%2F%2Ffonts.googleapis.com%2Fcss%3Ffamily%3DArchitects%2BDaughter;labelBackgroundColor=default;" parent="1" vertex="1">
          <mxGeometry x="-550" y="691" width="58" height="58" as="geometry" />
        </mxCell>
        <mxCell id="rA6aza_w5iIKAxAunfqu-45" value="&lt;font style=&quot;font-size: 14px;&quot;&gt;Github&lt;/font&gt;&lt;div style=&quot;font-size: 14px;&quot;&gt;&lt;font style=&quot;font-size: 14px;&quot;&gt;Co-Pilot&lt;/font&gt;&lt;/div&gt;" style="verticalLabelPosition=bottom;html=1;verticalAlign=top;align=center;strokeColor=none;fillColor=#00BEF2;shape=mxgraph.azure.github_code;pointerEvents=1;hachureGap=4;fontFamily=Architects Daughter;fontSource=https%3A%2F%2Ffonts.googleapis.com%2Fcss%3Ffamily%3DArchitects%2BDaughter;fontSize=14;fontColor=default;labelBackgroundColor=default;" parent="1" vertex="1">
          <mxGeometry x="-700" y="690" width="60" height="60" as="geometry" />
        </mxCell>
        <mxCell id="rA6aza_w5iIKAxAunfqu-47" value="" style="shape=image;verticalLabelPosition=bottom;labelBackgroundColor=default;verticalAlign=top;aspect=fixed;imageAspect=0;image=https://www.nicepng.com/png/full/806-8069495_adobe-png-adobe-suite.png;" parent="1" vertex="1">
          <mxGeometry x="-726.72" y="490" width="253.44" height="80.76" as="geometry" />
        </mxCell>
        <mxCell id="WuPXo1o1_WAH7fLLWVi5-1" style="edgeStyle=orthogonalEdgeStyle;curved=1;rounded=0;hachureGap=4;orthogonalLoop=1;jettySize=auto;html=1;exitX=1;exitY=0.5;exitDx=0;exitDy=0;entryX=0.5;entryY=0;entryDx=0;entryDy=0;entryPerimeter=0;strokeColor=default;strokeWidth=2;align=center;verticalAlign=middle;fontFamily=Architects Daughter;fontSource=https%3A%2F%2Ffonts.googleapis.com%2Fcss%3Ffamily%3DArchitects%2BDaughter;fontSize=18;fontColor=default;labelBackgroundColor=default;endArrow=classic;flowAnimation=1;" parent="1" source="rA6aza_w5iIKAxAunfqu-65" target="rA6aza_w5iIKAxAunfqu-80" edge="1">
          <mxGeometry relative="1" as="geometry" />
        </mxCell>
      </root>
    </mxGraphModel>
  </diagram>
</mxfile>
